<svg xmlns="http://www.w3.org/2000/svg" xmlns:xlink="http://www.w3.org/1999/xlink"><symbol viewBox="0 0 47.406 47.38" id="icon_aboutus-cow"><defs><style>.acls-1{fill:#323232;fill-rule:evenodd}</style></defs><path id="aКорова" class="acls-1" d="M39.11 23.19a2.42 2.42 0 0 1-2.128 1.04 9.366 9.366 0 0 1-3.256-.84 17.086 17.086 0 0 1-1.576 8.35 5.2 5.2 0 0 1 .517 3.08c-.488 3.38-4.283 5.23-8.524 5.23s-8.018-1.85-8.48-5.23a5.164 5.164 0 0 1 .33-2.62 17.33 17.33 0 0 1-1.786-8.73 8.93 8.93 0 0 1-3.065.76 2.42 2.42 0 0 1-2.127-1.04 2.326 2.326 0 0 1-.162-2.22c.812-1.91 3.593-2.74 4.75-3.01l.1-.02c-1.4-2.9-.723-7.6-.2-9.19L16.56 9c.056 1 .766 2.88 3.436 5.01l1.585 1.09a12.914 12.914 0 0 1 2.4-.23 12.732 12.732 0 0 1 2.29.21l1.692-1.16c2.67-2.13 3.38-4.01 3.435-5.01l3.058-.26c.528 1.6 1.207 6.35-.224 9.24l.295.07c1.157.27 3.937 1.1 4.75 3.01a2.326 2.326 0 0 1-.166 2.22zm-25.07-3.28s-2.86.66-3.362 1.85 3.155-.14 3.835-.7a2.317 2.317 0 0 1-.473-1.15zm3.3.07c-1.752 2.75-1.578 7 .467 11.37l.367.78-.318.8a3.21 3.21 0 0 0-.208 1.62c.33 2.41 3.6 3.5 6.5 3.5s6.2-1.1 6.545-3.52a3.177 3.177 0 0 0-.33-1.9l-.416-.84.378-.86c1.878-4.25 1.97-8.37.244-11.02-1.3-1.99-3.576-3.04-6.588-3.04-3.05 0-5.35 1.07-6.645 3.11zm20.093 1.78c-.5-1.19-3.36-1.85-3.36-1.85a2.328 2.328 0 0 1-.475 1.15c.678.56 4.333 1.88 3.833.7zm-18.57-6.1s-3.595-2.48-3.735-5.02c-.4 2.18-.584 5.62.7 6.99a21 21 0 0 1 3.032-1.97zm10.232-.1s3.595-2.47 3.736-5.01c.4 2.17.585 5.61-.704 6.98a22.893 22.893 0 0 0-3.034-1.97zM23.717-.01a23.7 23.7 0 1 1-23.7 23.7A23.7 23.7 0 0 1 23.714-.01zm0 45.4a21.7 21.7 0 1 1 21.7-21.7 21.722 21.722 0 0 1-21.703 21.7z"/></symbol><symbol viewBox="0 0 47.375 47.38" id="icon_aboutus-icecream"><defs><style>.bcls-1{fill:#323232;fill-rule:evenodd}</style></defs><path id="bМороженко" class="bcls-1" d="M29.64 9.64a8.575 8.575 0 0 0-14.638 6.06v14.68a.808.808 0 0 0 .81.81h15.532a.808.808 0 0 0 .81-.81V15.7a8.512 8.512 0 0 0-2.513-6.06zm.895 19.93H16.62V18.68c.045.05.092.1.143.16a2.62 2.62 0 0 0 4.31 0 1.185 1.185 0 0 1 .945-.6 1 1 0 0 1 .31.43 10.746 10.746 0 0 1 .487 1.22 9.606 9.606 0 0 0 .7 1.65 1.753 1.753 0 0 0 3.237 0 9.614 9.614 0 0 0 .7-1.65 10.67 10.67 0 0 1 .488-1.22 1 1 0 0 1 .31-.43 1.186 1.186 0 0 1 .945.6 3.205 3.205 0 0 0 1.346 1v9.73zm-9.007 8.58a2.05 2.05 0 1 0 4.1 0v-6.16h-4.1v6.16zm2.16-38.16a23.7 23.7 0 1 1-23.7 23.7 23.7 23.7 0 0 1 23.7-23.7zm0 45.4a21.7 21.7 0 1 1 21.7-21.7 21.722 21.722 0 0 1-21.7 21.7z"/></symbol><symbol viewBox="0 0 47.375 47.38" id="icon_aboutus-natural"><defs><style>.ccls-1{fill:#323232;fill-rule:evenodd}</style></defs><path id="cЛистик" class="ccls-1" d="M23.624 39.81s-22.24-10.18 0-32.75c22.24 22.57 0 32.75 0 32.75zm7.516-17.18l-6.536 4.16-.02 3.68 6.893-4.41a13.37 13.37 0 0 0-.337-3.43zm-15.39 3.19l6.833 4.48v-3.62l-6.453-4.15a13.622 13.622 0 0 0-.38 3.29zm6.833-1.52v-3.63l-4.396-3.38a21.756 21.756 0 0 0-1.464 3.24zm0-6.09v-7.04a39.184 39.184 0 0 0-3.356 4.42zm2 .28l3.63-2.6a39.493 39.493 0 0 0-3.63-4.82v7.42zm.02 2.3l-.02 3.68 5.98-3.85a21.714 21.714 0 0 0-1.336-3.01zm6.444 7.9l-6.443 4.1-.02 4.16a15.3 15.3 0 0 0 6.462-8.26zm-8.463 8.2v-4.21l-6.417-4.13c1.105 4.14 4.32 6.93 6.42 8.34zm1.1-36.9a23.7 23.7 0 1 1-23.7 23.7A23.7 23.7 0 0 1 23.687-.01zm0 45.4a21.7 21.7 0 1 1 21.7-21.7 21.722 21.722 0 0 1-21.697 21.7z"/></symbol><symbol viewBox="0 0 47.406 47.38" id="icon_aboutus-temp"><defs><style>.dcls-1{fill:#323232;fill-rule:evenodd}</style></defs><path id="dГрадусник" class="dcls-1" d="M23.554 38.52a6.814 6.814 0 0 1-6.823-6.77 8.038 8.038 0 0 1 1.823-4.6V12.31a5 5 0 0 1 10 0v14.91a7.63 7.63 0 0 1 1.778 4.53 6.775 6.775 0 0 1-6.776 6.77zm0-2a4.8 4.8 0 0 1-4.8-4.77 5.237 5.237 0 0 1 1.845-3.78V12.31a3 3 0 0 1 6 0v15.72a5.092 5.092 0 0 1 1.753 3.72 4.8 4.8 0 0 1-4.8 4.77zm2.706-4.91A2.774 2.774 0 1 1 22.585 29V12.16a.95.95 0 0 1 1.9 0v16.87a2.765 2.765 0 0 1 1.775 2.58zm5.27-16.42h4a1 1 0 0 1 0 2h-4a1 1 0 0 1 0-2zm0-4h4a1 1 0 0 1 0 2h-4a1 1 0 0 1 0-2zm0 8h4a1 1 0 0 1 0 2h-4a1 1 0 0 1 0-2zm0 4h4a1 1 0 0 1 0 2h-4a1 1 0 0 1 0-2zM23.715-.01a23.7 23.7 0 1 1-23.7 23.7 23.7 23.7 0 0 1 23.7-23.7zm0 45.4a21.7 21.7 0 1 1 21.7-21.7 21.722 21.722 0 0 1-21.7 21.7z"/></symbol><symbol preserveAspectRatio="xMidYMid" viewBox="0 0 20.62 19.719" id="icon_cart"><defs><style>.ecls-1{fill:#fff;fill-rule:evenodd}</style></defs><path d="M20.576 4.43l-1.204 8.91c-.184.923-1.024 1.636-1.882 1.636H6.61c-.86 0-1.697-.713-1.88-1.635L3.263 3.055c-.146-.732-.157-.977-.137-1.055H1a1 1 0 0 1 0-2h4a1 1 0 0 1 1 1 .99.99 0 0 1-.898.98h13.965c1.105 0 1.773 1.13 1.51 2.45zM5.418 3.945l1.313 9h10.673c-.005 0-.004-.002.004-.013l1.186-8.788s.028-.2.03-.2H5.42zm1.827 12.01a1.874 1.874 0 1 1 .002 3.748 1.874 1.874 0 0 1-.002-3.748zm9 0a1.874 1.874 0 1 1 0 3.748 1.874 1.874 0 0 1 0-3.748z" class="ecls-1"/></symbol><symbol viewBox="0 0 15.12 10.25" id="icon_cart--full"><defs><style>.fcls-1{fill:#ec573b;fill-rule:evenodd}</style></defs><path id="fКорзина_заполнена" data-name="Корзина заполнена" class="fcls-1" d="M0 0h15.12l-1.37 10.25-12.63-.125z"/></symbol><symbol viewBox="0 0 10.125 10.124" id="icon_close"><defs><style>.gcls-1{fill:#353535;fill-rule:evenodd}</style></defs><path id="g_Х" data-name="Х" class="gcls-1" d="M-.015.7l.708-.706 9.432 9.428-.707.707zm9.438-.715l.707.707-9.428 9.43-.708-.71z"/></symbol><symbol viewBox="0 0 14.562 12.66" id="icon_heart"><defs><style>.hcls-1{fill:#f7f8f8;fill-rule:evenodd}</style></defs><path id="hСердце" class="hcls-1" d="M7.262 12.67s7.285-3.6 7.285-8.22c0-5.13-5.5-5.94-7.3-1.71m.05 9.93S.01 9.07.01 4.45c0-5.13 5.5-5.94 7.3-1.71"/></symbol><symbol viewBox="0 0 8 14" id="icon_pagination-next"><defs><style>.icls-1{fill:#fff;fill-rule:evenodd}</style></defs><path id="i_" data-name="&lt;" class="icls-1" d="M.014 12.56L5.276 7 .02 1.45 1.386.01l6.624 7-1.366 1.44-5.262 5.56z"/></symbol><symbol viewBox="0 0 8.281 13.72" id="icon_pagination-prev"><defs><style>.jcls-1{fill:#fff;fill-rule:evenodd}</style></defs><path id="j_" data-name="&lt;" class="jcls-1" d="M8.267 1.41L2.82 6.86l5.44 5.44-1.414 1.41L-.01 6.85l1.413-1.41L6.85 0z"/></symbol><symbol preserveAspectRatio="xMidYMid" viewBox="0 0 16.687 16.688" id="icon_search"><defs><style>.kcls-1{fill:#fff;fill-rule:evenodd}</style></defs><path d="M11.936 10.497h-.758l-.264-.26a6.166 6.166 0 0 0 1.497-4.03c0-3.425-2.778-6.2-6.205-6.2A6.202 6.202 0 0 0 0 6.207a6.202 6.202 0 0 0 10.24 4.703l.262.262v.755l4.773 4.76 1.423-1.422-4.762-4.768zm-5.73 0a4.294 4.294 0 0 1-4.298-4.29 4.294 4.294 0 0 1 4.297-4.293A4.293 4.293 0 0 1 10.5 6.206c0 2.37-1.922 4.29-4.295 4.29z" class="kcls-1"/></symbol><symbol preserveAspectRatio="xMidYMid" viewBox="0 0 20.062 19" id="icon_singin"><defs><style>.lcls-1{fill:#fff;fill-opacity:.99;fill-rule:evenodd}</style></defs><path d="M17.06 18.986H6a3 3 0 0 1-3-3V15h2v2h13V2H5v1.968H3v-.96a3 3 0 0 1 3-3h11.06a3 3 0 0 1 3 3v12.978a3 3 0 0 1-3 3zM6.023 4.158l7.027 5.3-7.026 5.3v-2.743h-6.03V6.9h6.03V4.16z" class="lcls-1"/></symbol><symbol viewBox="0 0 31.374 31.4" id="icon_social-facebook"><defs><style>.mcls-1{fill:#fff;fill-rule:evenodd;opacity:.8}</style></defs><path id="mФБ" class="mcls-1" d="M15.677.01A15.69 15.69 0 1 1-.015 15.7 15.687 15.687 0 0 1 15.677.01zM16.45 25v-9.29h2.743l.285-3.09H16.45v-1.86c0-.89.085-1.26 1.367-1.26h1.764V6.08h-2.79c-3.295 0-4.083 1.54-4.083 4.34v2.2h-1.89v3.09h1.895V25h3.738z"/></symbol><symbol viewBox="0 0 31.374 31.4" id="icon_social-instagram"><defs><style>.ncls-1{fill:#fff;fill-rule:evenodd;opacity:.8}</style></defs><path id="nИнста" class="ncls-1" d="M15.677.01A15.69 15.69 0 1 1-.015 15.7 15.688 15.688 0 0 1 15.677.01zm6.27 23.61a1.745 1.745 0 0 0 1.746-1.75V9.56a1.743 1.743 0 0 0-1.745-1.74H9.62a1.743 1.743 0 0 0-1.744 1.74v12.31a1.745 1.745 0 0 0 1.745 1.75h12.33zm-1.374-9.1a4.92 4.92 0 1 1-9.53 0h-1.38v6.78a.61.61 0 0 0 .612.61H21.34a.61.61 0 0 0 .612-.61v-6.78h-1.38zm-4.76-1.61a2.848 2.848 0 1 1 0 5.68 2.84 2.84 0 0 1 0-5.68zm3.7-3.31h1.864a.608.608 0 0 1 .61.61v1.86a.608.608 0 0 1-.61.61h-1.865a.61.61 0 0 1-.61-.61v-1.86a.61.61 0 0 1 .61-.61z"/></symbol><symbol viewBox="0 0 31.375 31.4" id="icon_social-twitter"><defs><style>.ocls-1{fill:#fff;fill-rule:evenodd;opacity:.8}</style></defs><path id="oТвитер" class="ocls-1" d="M15.677.01A15.69 15.69 0 1 1-.015 15.7 15.688 15.688 0 0 1 15.677.01zm9.138 10.81a7.33 7.33 0 0 1-2.092.57 3.663 3.663 0 0 0 1.6-2.02 7.4 7.4 0 0 1-2.313.89 3.645 3.645 0 0 0-6.207 3.32 10.316 10.316 0 0 1-7.507-3.81 3.655 3.655 0 0 0 1.127 4.87 3.68 3.68 0 0 1-1.65-.46v.05a3.65 3.65 0 0 0 2.922 3.57 3.79 3.79 0 0 1-.96.13 3.86 3.86 0 0 1-.685-.07 3.643 3.643 0 0 0 3.4 2.53 7.29 7.29 0 0 1-4.524 1.56 8.29 8.29 0 0 1-.87-.05 10.354 10.354 0 0 0 15.947-8.73c0-.16 0-.31-.01-.47a7.33 7.33 0 0 0 1.822-1.88z"/></symbol><symbol viewBox="0 0 31.374 31.4" id="icon_social-vkontakte"><defs><style>.pcls-1{fill:#fff;fill-rule:evenodd;opacity:.8}</style></defs><path id="pВК" class="pcls-1" d="M15.677.01A15.69 15.69 0 1 1-.015 15.7 15.687 15.687 0 0 1 15.677.01zm5.967 18.25a3.1 3.1 0 0 0-.757-2.2 3.7 3.7 0 0 0-2.016-1.09v-.07a2.88 2.88 0 0 0 1.372-1.14 3.21 3.21 0 0 0 .5-1.77 3.133 3.133 0 0 0-.362-1.52 2.6 2.6 0 0 0-1.09-1.05 4.522 4.522 0 0 0-1.447-.48 17.993 17.993 0 0 0-2.27-.11h-4.8v13.59h5.44a8.91 8.91 0 0 0 2.33-.25 4.783 4.783 0 0 0 1.687-.86 3.684 3.684 0 0 0 1.032-1.27 3.91 3.91 0 0 0 .383-1.78zm-4.372-5.59a1.517 1.517 0 0 0-.17-.67 1 1 0 0 0-.526-.5 2.11 2.11 0 0 0-.8-.17c-.308 0-.766-.01-1.374-.01h-.237v2.88h.43c.583 0 .994-.01 1.228-.02a2.044 2.044 0 0 0 .727-.19 1.13 1.13 0 0 0 .563-.53 1.9 1.9 0 0 0 .157-.79zm.856 5.53a1.673 1.673 0 0 0-.255-.99 1.533 1.533 0 0 0-.767-.54 2.658 2.658 0 0 0-.853-.13c-.362-.01-.85-.01-1.456-.01h-.63v3.4h.184c.89 0 1.5-.01 1.843-.02a2.867 2.867 0 0 0 1.04-.24 1.38 1.38 0 0 0 .68-.59 1.813 1.813 0 0 0 .215-.88z"/></symbol><symbol preserveAspectRatio="xMidYMid" viewBox="0 0 153.094 63.25" id="logo"><defs><style>.qcls-1{fill:#fff;fill-rule:evenodd}</style></defs><path d="M153.077 52.162c-.45 6.77-5.747 11.1-12.885 11.1-6.872 0-10.002-3.162-10.002-6.1 0-1.62 1.247-2.834 2.48-3.194.18-.04.29-.055.385-.055.284 0 .445.13.53.238.21.264.142.568.053.952-.025.108-.054.233-.083.378-.18 1.02-.18 2.514.873 3.77 1.16 1.388 3.36 2.12 6.357 2.12 4.543 0 9.617-3.596 9.894-9.406.202-4.772-2.148-8.118-6.056-8.758.333.84.536 1.767.605 2.767.17 2.586-.487 4.848-1.85 6.372-1.104 1.234-2.61 1.93-4.354 2.008-1.47.073-2.66-.424-3.51-1.395-.944-1.078-1.354-2.692-1.123-4.43.436-3.403 2.66-6.05 5.887-7.092-1.645-1.313-4.024-2.08-6.81-2.184-3.242-.13-6.064.543-8.433 1.97-1.206 7.44-3.688 16.015-6.777 16.015-.638 0-1.234-.395-1.677-1.114-1.042-1.693-1.26-5.305.722-9.24 1.48-2.913 3.18-5.055 5.19-6.54.258-2.357.45-4.803.568-7.296-.987 1.26-2.156 1.97-3.352 2.005-1.003 1.397-2.294 2.164-3.655 2.164-1.18 0-2.27-.485-3.153-1.404-1.317-1.372-1.987-3.498-1.886-5.987.168-4.01 1.81-7.016 4.39-8.04.528-.216 1.05-.062 1.25.342.565-.654 1.266-1.106 2.11-1.26.733-.13 1.42.167 1.987.82 1.185 1.358 1.643 3.973 1.227 6.996-.24 1.643-.612 3.067-1.113 4.254.934-.687 1.84-2.452 2.34-4.698.015-1.497.01-2.898-.017-4.282-.03-1.054.313-1.636.606-1.94.297-.304.69-.48 1.08-.48 1.085 0 1.138.627 1.138 1.733 0 .442.007.836.015 1.314l.01.77c1.205-2.613 2.747-4.056 4.394-4.056.735 0 1.407.31 1.943.867 1.105 1.153 1.618 3.44 1.485 6.564-.28 5.663-3.5 8.247-6.567 8.247-.577 0-1.117-.003-1.635-.21-.057.678-.126 1.555-.21 2.223 2.473-1.056 5.34-1.057 8.836-.83 4.064.246 7.084 2.4 8.977 4.4h.236c2.774 0 5.26.224 7.002 2.08 1.858 1.978 2.772 4.392 2.575 7.522zm-33.224-5.17c-1.78 3.562-1.704 6.022-1.22 6.807.09.142.184.22.28.23.585-.283 2.044-3.615 3.082-10.25a15.384 15.384 0 0 0-2.142 3.213zm-4.89-17.48c-.192-1.843-.007-3.812.58-5.41-.738 1.07-1.226 2.96-1.32 5.254-.1 2.02.382 3.792 1.286 4.74.256.27.67.593 1.182.593.28 0 .57-.09.858-.256-1.382-.896-2.366-2.73-2.586-4.92zm4.22-5.27c-.054-.056-.132-.125-.203-.125-.85.245-1.915 2.415-1.79 4.94.062 1.41.556 3.194 1.727 3.914.432-.788.888-2.085 1.008-4.13.157-2.448-.274-4.1-.742-4.597zm8.07 10.7c1.83 0 3.07-2.076 3.32-5.556.21-3.24-.2-4.914-.658-5.4-.123-.132-.21-.132-.244-.132-.64 0-2.694 2.878-3.747 9.672l-.064 1.027c.345.266.794.39 1.393.39zm15.62 11.602c-.074-1.258-.414-2.38-1.012-3.342-2.665.507-4.55 2.4-4.95 5-.217 1.305-.01 2.413.584 3.127.45.54 1.088.82 1.9.836l.107.002c.77 0 1.473-.316 2.038-.916.965-1.024 1.453-2.74 1.335-4.708zm-31.248-8.428c-.046.22-.27.773-1.482.623-2.446-.264-3.577-3.233-3.452-9.076.03-1.42.153-2.6.25-3.55.092-.88.194-1.88.06-2.078-.726.038-3.545 3.81-4.575 10.633-.05 1.73-1.027 2.207-1.597 2.207-1.037 0-1.22-.442-1.22-1.688 0-1.458.015-1.995.045-3.077.02-.715.047-1.67.08-3.297.075-2.74.25-5.39.522-7.89-1.378.233-2.875.248-4.374.04-4.263-.57-5.69-3.31-5.605-5.69.104-1.51 1.426-2.372 2.288-2.587.175-.04.29-.054.39-.054.308 0 .47.16.54.254.205.284.107.582-.04 1.033l-.082.25c-.183.69-.163 1.47.065 2.18.123.274.387.66.833.66.31 0 .668-.184.984-.504.67-.68 1.062-1.828 1.047-3.075-.042-2.73-1.607-4.333-4.41-4.513a8.127 8.127 0 0 0-.54-.017c-2.527 0-5.25 1.275-5.636 4.125-.488 3.726 2.647 5.625 5.965 7.634l.374.227c3.42 2.112 7.043 4.756 6.772 9.45-.306 5.01-4.763 8.788-10.37 8.788-.694 0-1.398-.06-2.09-.18-6.885-1.187-9.05-6.53-8.814-10.744.106-1.516.587-3.64 2.284-5.177.597-.545 2.43-1.143 3.02-1.228.724-.106.91.206.987.38.187.43-.133.86-.507 1.26-1.965 1.923-2.827 3.435-3.093 5.41-.24 1.89.27 3.718 1.432 5.144 1.21 1.486 3.055 2.396 5.196 2.564 4.21.326 8.16-2.198 8.543-5.332.472-3.82-2.457-6.13-5.763-8.348l-.695-.457c-3.46-2.272-7.037-4.623-6.652-8.657.377-4.587 5.078-6.99 9.528-6.99.123 0 .244 0 .363.005 2.28.085 4.1.81 5.263 2.1 1.042 1.157 1.532 2.713 1.413 4.498-.12 2.368-1.27 4.465-2.915 5.476.28.1.578.18.89.235 1.21.227 2.46.2 3.616-.077 1.205-8.835 3.718-14.523 6.434-14.523.62 0 1.21.408 1.662 1.147 1.173 1.913 1.408 5.72-.41 9.294-1.2 2.397-2.92 4.134-5.12 5.162a62.813 62.813 0 0 0-.46 6.927c1.437-3.125 3.5-5.732 5.643-5.732.51 0 .928.172 1.242.51.892.965.773 3.11.485 6.816-.534 6.513.196 8.186.902 8.443.86.382.818.91.785 1.063zm-5.814-23.384c1.458-2.914 1.274-5.64.817-6.674-.134-.304-.258-.4-.292-.408-.545.246-2.014 3.81-2.99 10.085 1.01-.738 1.836-1.745 2.466-3.003zM76.766 29.025c-2.93 21.904-5.728 24.438-7.58 24.438-.623 0-1.175-.315-1.595-.91-1.087-1.545-1.112-4.672-.062-7.607a29.284 29.284 0 0 1 5.63-9.628l.03-.278c-.87 1.337-1.832 2.05-2.814 2.05-.987 0-2.657-.495-3.58-3.54-1.5 2.618-3.475 4.09-5.54 4.09-2.077 0-3.905-1.293-4.914-3.39-.8 1.928-1.91 3.773-3.23 3.773-1.08 0-1.912-1.273-2.296-3.415-.95 1.59-2.08 2.503-3.258 2.606a2.066 2.066 0 0 1-.17.007c-1.236 0-2.666-1.067-3.394-3.126-1.215 2.203-2.594 3.44-3.876 3.44-1.685 0-3.32-2.003-4.28-5.128-1.075 2.608-2.734 5.108-4.575 5.108-.702 0-1.423-.37-2.084-1.07-1.52-1.612-3.174-5.625-2.826-11.634.517-8.31 3.554-19.898 7.328-19.898.286 0 .7.093 1.057.54 1.293 1.628.768 7.125-.018 10.508-1.055 4.308-3.35 9.392-5.112 12.273.283 4.745 1.406 6.88 2.122 6.88.767 0 2.432-2.666 3.316-6.852a27.293 27.293 0 0 1-.058-4.036c.542-8.715 3.722-20.868 7.67-20.868.295 0 .723.096 1.09.56 1.352 1.7.8 7.46-.024 11.008-1.106 4.522-3.518 9.862-5.367 12.886.297 5.003 1.49 7.255 2.253 7.255.576 0 1.923-1.64 2.982-5.16.655-6.057 4.193-8.196 7.02-8.196 1.535 0 2.402.576 2.86 1.06.583.62.874 1.47.82 2.396-.13 1.005-1.65 1.89-2.4 2.03-.54.117-.805-.1-.896-.232-.222-.32-.095-.662.116-1.23l.05-.134c.278-.9.306-1.526.076-1.838-.162-.22-.5-.332-1.007-.332-1.654 0-3.04 2.295-3.45 5.71-.313 2.544.262 4.513.93 5.268.158.178.32.28.44.28.814 0 1.926-1.62 2.478-4.72l.025-.316c.02-.275.04-.53.102-.873.188-.976 1.313-1.418 2.28-1.418.42 0 .702.092.864.277l.15.172-.015.278c-.984 5.17-.67 7.093-.432 7.49.287-.26 1.015-1.47 1.9-4.94a13.357 13.357 0 0 1-.004-.94c.253-5.043 2.892-8.84 6.142-8.84.91 0 1.66.31 2.228.92 1.12 1.21 1.07 3.13 1.028 3.69-.132.998-1.654 1.8-2.4 1.938-.612.135-.815-.086-.904-.214-.204-.296-.088-.605.088-1.072l.085-.226c.38-1.07.557-2.458.154-3.03-.086-.122-.25-.285-.66-.285-1.27 0-2.39 2.903-2.553 6.607-.073 2.18.482 4.1 1.486 5.14.498.514 1.088.786 1.705.786 2.397 0 3.726-3.08 4.318-4.984-.144-1.94-.08-4.237.19-6.828.13-1.133 1.578-1.553 2.46-1.553.378 0 .624.08.775.254l.15.173-.017.27c-.842 6.683-.728 10.69.34 11.9.206.233.44.342.734.342.822 0 2.37-2.897 3.025-8.13.092-1.388.22-2.69.34-3.453.128-1.096 1.558-1.512 2.43-1.512.406 0 .668.092.822.288l.15.192-.045.296c.005 0-.337 3.473-.797 6.655zm-6.982 16.05c-.983 2.646-.834 4.304-.37 4.974.123.174.242.242.312.25.563-.228 1.79-3.455 2.905-11.134a35.676 35.676 0 0 0-2.847 5.91zM32.43 16.066c.98-3.774.93-6.968.64-7.847-1.034 1.39-3.09 9.68-3.45 15.846 1.15-2.63 2.255-5.748 2.81-7.998zm8.938-1.017c1.052-4.048.977-7.435.656-8.3-1.088 1.36-3.303 10.257-3.662 16.827 1.226-2.79 2.415-6.13 3.006-8.527zm-31.23 2.625a25.24 25.24 0 0 0-1.078 4.794c-.58 4.72.25 8.865 2.215 11.088 1.08 1.222 2.454 1.84 4.082 1.842.092 0 .184-.002.277-.007 4.15-.203 5.55-4.45 6.016-6.964l.132-2.548c.078-2.123 1.386-2.288 1.785-2.288.317 0 1.22.134 1.22.727C24.33 30.905 23.67 36.034 22.763 40c4.964.347 11.007 1.306 16.306 2.208 4.402.743 9.413 1.5 13.18 1.5 3.222 0 5.158-.546 5.754-1.622.12-.204.192-.358.244-.473.104-.223.26-.562.663-.562.247 0 .434.14.67.32.848.584 1.428 1.598 1.466 2.57.023.595-.137 1.458-1.03 2.182-.893.747-2.355 1.113-4.465 1.113-3.668 0-8.713-1.074-14.054-2.21-.98-.21-1.964-.42-2.94-.62-6.47-1.323-11.96-2.098-16.324-2.307-1.58 5.356-3.827 8.125-7.048 8.7-.32.054-.644.08-.968.08-2.1 0-4.15-1.085-5.22-2.765-.86-1.355-.96-2.905-.28-4.364 1.184-2.63 4.5-3.857 10.43-3.857.347 0 .7.004 1.063.012.326-1.413.597-2.994.822-4.79-1.558 1.618-3.54 2.52-5.82 2.626l-.3.006c-2.537 0-4.752-.975-6.41-2.82-2.417-2.696-3.494-7.092-2.955-12.06.217-1.998.628-3.846 1.224-5.507-2.487-.592-4.53-1.868-5.664-3.55C.102 12.32-.207 10.565.188 8.59 1.5 2.025 9.924-.013 12.844-.013c.518 0 .895.056 1.15.17.38.18 1.36.647 1.196 1.368-.093.413-.528.66-1.163.66-.312 0-.642-.062-.93-.17-.043-.018-.213-.07-.625-.07-2.142 0-8.658 1.6-9.576 6.506-.635 3.35 1.87 5.823 4.78 6.646 2.574-5.46 7.165-9.343 11.79-9.94 2.232-.3 4.05.296 4.95 1.636.715 1.068.786 2.507.194 3.95-1.536 3.77-7.85 6.777-14.472 6.93zm2.164 26.41c-.634 1.046-.72 2.145-.23 3.01.456.813 1.327 1.297 2.33 1.297.36 0 .727-.064 1.09-.19 1.72-.617 3.122-2.672 4.163-6.114-5.088.084-6.812 1.12-7.353 1.998zM21.157 8.13c-.33-.512-.997-.618-1.497-.618a4.74 4.74 0 0 0-.836.08c-2.767.528-5.836 3.617-7.79 7.786 3.953-.313 8.694-2.295 10.003-5.04.4-.896.446-1.706.12-2.21z" class="qcls-1"/></symbol><symbol viewBox="0 0 107.622 36.69" id="logo_copyright-htmlacademy"><defs><style>.rcls-1{fill:#fff;fill-rule:evenodd}</style></defs><path id="rЛого" class="rcls-1" d="M44.412 26.75a1.983 1.983 0 0 0 .55-.1v1.33a3.162 3.162 0 0 1-1.17.21 1.663 1.663 0 0 1-1.66-.97 4.79 4.79 0 0 1-3.13 1.07 2.6 2.6 0 0 1-2.9-2.54c0-2.13 1.97-2.78 3.7-2.78a10.91 10.91 0 0 1 2.16.24v-.29c0-1.04-.76-1.77-2.18-1.77a7.336 7.336 0 0 0-2.99.64V20.1a10.04 10.04 0 0 1 3.18-.55c2.35 0 3.84 1.12 3.84 3.63v2.97a.533.533 0 0 0 .6.6m-6.41-1.12a1.348 1.348 0 0 0 1.55 1.23 3.373 3.373 0 0 0 2.41-.99v-1.4a9.984 9.984 0 0 0-1.8-.21c-1.05 0-2.16.33-2.16 1.37m12.3-6.08a4.92 4.92 0 0 1 2.56.64v1.69a4.06 4.06 0 0 0-2.3-.69 2.737 2.737 0 1 0-.03 5.46 5 5 0 0 0 2.42-.64v1.71a6.285 6.285 0 0 1-2.75.57 4.192 4.192 0 0 1-4.48-4.3 4.3 4.3 0 0 1 4.58-4.44m12.12 7.2a1.983 1.983 0 0 0 .55-.1v1.33a3.162 3.162 0 0 1-1.17.21 1.663 1.663 0 0 1-1.66-.97 4.79 4.79 0 0 1-3.13 1.07 2.6 2.6 0 0 1-2.9-2.54c0-2.13 1.97-2.78 3.69-2.78a11.01 11.01 0 0 1 2.17.24v-.29c0-1.04-.77-1.77-2.18-1.77a7.336 7.336 0 0 0-2.99.64V20.1a9.985 9.985 0 0 1 3.18-.55c2.35 0 3.83 1.12 3.83 3.63v2.97a.54.54 0 0 0 .61.6m-6.41-1.12a1.348 1.348 0 0 0 1.55 1.23 3.39 3.39 0 0 0 2.41-.99v-1.4a10.093 10.093 0 0 0-1.8-.21c-1.06 0-2.16.33-2.16 1.37m16.67-9.66v12.1h-1.65v-1.32a3.876 3.876 0 0 1-3.18 1.54 4.378 4.378 0 0 1 0-8.74 3.86 3.86 0 0 1 2.99 1.29v-4.87h1.84zm-4.51 5.2a2.756 2.756 0 0 0 0 5.5 2.89 2.89 0 0 0 2.65-1.75V22.9a2.905 2.905 0 0 0-2.65-1.73m10.51-1.62c3.3 0 4.44 2.66 3.91 5.06h-6.24c.21 1.49 1.66 2.11 3.18 2.11a6.036 6.036 0 0 0 2.63-.59v1.59a7.192 7.192 0 0 1-2.98.57c-2.54 0-4.7-1.45-4.7-4.37a4.153 4.153 0 0 1 4.2-4.37m.09 1.53a2.27 2.27 0 0 0-2.44 2.15h4.6a1.964 1.964 0 0 0-2.16-2.15m5.7 6.99v-8.3h1.64v1.04a3.806 3.806 0 0 1 2.77-1.26 2.813 2.813 0 0 1 2.59 1.33 4.106 4.106 0 0 1 2.9-1.33 3.042 3.042 0 0 1 3.15 3.33v5.19h-1.85v-5.14a1.577 1.577 0 0 0-1.64-1.74 2.774 2.774 0 0 0-2.06 1.12 5.46 5.46 0 0 1 .04.57v5.19h-1.85v-5.14a1.577 1.577 0 0 0-1.64-1.74 2.92 2.92 0 0 0-2.2 1.28v5.6h-1.85zm21.21-8.3h1.93l-3.89 9.42c-.89 2.16-2.07 2.89-3.33 2.89a5.088 5.088 0 0 1-1.09-.14v-1.58a2.787 2.787 0 0 0 .85.13c.9 0 1.57-.64 2.05-1.94l.18-.41-3.94-8.37h1.97l2.8 6.26zM38.542 1.44v4.72a3.8 3.8 0 0 1 2.68-1.14 3.23 3.23 0 0 1 3.42 3.39v5.13h-1.85V8.65a1.8 1.8 0 0 0-1.93-1.99 2.927 2.927 0 0 0-2.32 1.39v5.49h-1.85V1.44h1.85zm11.17.85v2.96h3.01v1.62h-3.01v3.8c0 1.09.5 1.45 1.57 1.45a4.608 4.608 0 0 0 1.68-.32v1.59a6.9 6.9 0 0 1-2.23.36 2.54 2.54 0 0 1-2.85-2.73V6.87h-1.49V5.25h1.49V2.74zm5.37 11.25V5.25h1.64v1.03a3.806 3.806 0 0 1 2.77-1.26 2.833 2.833 0 0 1 2.59 1.33 4.15 4.15 0 0 1 2.91-1.33 3.048 3.048 0 0 1 3.14 3.34v5.18h-1.85V8.41a1.585 1.585 0 0 0-1.64-1.75 2.783 2.783 0 0 0-2.06 1.13 5.46 5.46 0 0 1 .04.57v5.18h-1.85V8.41a1.585 1.585 0 0 0-1.64-1.75 2.948 2.948 0 0 0-2.2 1.28v5.6h-1.85zm15.76 0h1.84V1.44h-1.84v12.1zM14.635.02L14.483 0 0 1.52v26.55l14.483 8.61 14.49-8.61V1.52zm12.437 26.97l-12.59 7.49-12.588-7.49V16.11l12.535 7.46.02 1.35-8.6-5.12-.013 1.32 8.634 5.18.022 1.39-8.63-5.13-.013 1.31 8.632 5.19 8.72-5.22v-1.31h-.01v-4.29l3.88-2.32v11.07zm-.01-12.48l-3.44 2.03-1.59.94-7.586-4.51-.013 1.31 6.48 3.86-.06.03-.13.08-.93.54-5.347-3.18-.013 1.31 4.22 2.52-.99.66-.03.02-3.187-1.88-.013 1.31 2.09 1.23-2.13 1.28-12.472-7.41 12.492-7.51zm.01-1.32L14.415 5.73 1.897 13.18V3.23l12.59-1.32 12.588 1.32v9.96z"/></symbol></svg>